#tb 0: 1/44100
#media_type 0: audio
#codec_id 0: pcm_s16le
#sample_rate 0: 44100
#channel_layout 0: 4
#channel_layout_name 0: mono
0,          0,          0,     1152,     2304, 0x907cb7fa
0,       1152,       1152,     1152,     2304, 0xb8dc7525
0,       2304,       2304,     1152,     2304, 0x3e7d6905
0,       3456,       3456,     1152,     2304, 0xef47877b
0,       4608,       4608,     1152,     2304, 0xfe916b7e
0,       5760,       5760,     1152,     2304, 0xe3d08cde
0,       6912,       6912,     1152,     2304, 0xff7f86cf
0,       8064,       8064,     1152,     2304, 0x843e6f95
0,       9216,       9216,     1152,     2304, 0x81577c26
0,      10368,      10368,     1152,     2304, 0x04a085d5
0,      11520,      11520,     1152,     2304, 0x1c5a76f5
0,      12672,      12672,     1152,     2304, 0x4ee78623
0,      13824,      13824,     1152,     2304, 0x8ec861dc
0,      14976,      14976,     1152,     2304, 0x0ca179d8
0,      16128,      16128,     1152,     2304, 0xc6da750f
0,      17280,      17280,     1152,     2304, 0xf6bf79b5
0,      18432,      18432,     1152,     2304, 0x97b88a43
0,      19584,      19584,     1152,     2304, 0xf13c7b9c
0,      20736,      20736,     1152,     2304, 0xdfba83af
0,      21888,      21888,     1152,     2304, 0xc9467d4b
0,      23040,      23040,     1152,     2304, 0xbbb58e2b
0,      24192,      24192,     1152,     2304, 0x3a1078ea
0,      25344,      25344,     1152,     2304, 0xe9587a5c
0,      26496,      26496,     1152,     2304, 0xef5a8039
0,      27648,      27648,     1152,     2304, 0x9d5f782f
0,      28800,      28800,     1152,     2304, 0x1a548291
0,      29952,      29952,     1152,     2304, 0x07517701
0,      31104,      31104,     1152,     2304, 0x78127d6e
0,      32256,      32256,     1152,     2304, 0x62e2788a
0,      33408,      33408,     1152,     2304, 0x29397ad9
0,      34560,      34560,     1152,     2304, 0x45da82d6
0,      35712,      35712,     1152,     2304, 0x8ed66e51
0,      36864,      36864,     1152,     2304, 0x660775cd
0,      38016,      38016,     1152,     2304, 0x802c767a
0,      39168,      39168,     1152,     2304, 0xcc055840
0,      40320,      40320,     1152,     2304, 0x701b7eaf
0,      41472,      41472,     1152,     2304, 0x8290749f
0,      42624,      42624,     1152,     2304, 0x2c7b7d30
0,      43776,      43776,     1152,     2304, 0xe4f17743
0,      44928,      44928,     1152,     2304, 0x0e747d6e
0,      46080,      46080,     1152,     2304, 0xbe7775a0
0,      47232,      47232,     1152,     2304, 0xcf797673
0,      48384,      48384,     1152,     2304, 0x29cb7800
0,      49536,      49536,     1152,     2304, 0xfc947890
0,      50688,      50688,     1152,     2304, 0x62757fc6
0,      51840,      51840,     1152,     2304, 0x098876d0
0,      52992,      52992,     1152,     2304, 0xa9567ee2
0,      54144,      54144,     1152,     2304, 0xe3bb9173
0,      55296,      55296,     1152,     2304, 0xcc2d6dee
0,      56448,      56448,     1152,     2304, 0xe94591ab
0,      57600,      57600,     1152,     2304, 0x5c7588de
0,      58752,      58752,     1152,     2304, 0xfd83643c
0,      59904,      59904,     1152,     2304, 0x528177f1
0,      61056,      61056,     1152,     2304, 0x65d08474
0,      62208,      62208,     1152,     2304, 0x738d765b
0,      63360,      63360,     1152,     2304, 0xdd3d810e
0,      64512,      64512,     1152,     2304, 0xef4f90d3
0,      65664,      65664,     1152,     2304, 0x61e28d43
0,      66816,      66816,     1152,     2304, 0x9a11796b
0,      67968,      67968,     1152,     2304, 0x96c97dcd
0,      69120,      69120,     1152,     2304, 0xa8fe8621
0,      70272,      70272,     1152,     2304, 0x499b7d38
0,      71424,      71424,     1152,     2304, 0xfcb078a9
0,      72576,      72576,     1152,     2304, 0x40d78651
0,      73728,      73728,     1152,     2304, 0xa4af7234
0,      74880,      74880,     1152,     2304, 0x6831870a
0,      76032,      76032,     1152,     2304, 0x030e7b9d
0,      77184,      77184,     1152,     2304, 0x445a75b6
0,      78336,      78336,     1152,     2304, 0x09857389
0,      79488,      79488,     1152,     2304, 0x0d018866
0,      80640,      80640,     1152,     2304, 0x2afe810a
0,      81792,      81792,     1152,     2304, 0x0bcf7c43
0,      82944,      82944,     1152,     2304, 0x13737c12
0,      84096,      84096,     1152,     2304, 0x716c7bba
0,      85248,      85248,     1152,     2304, 0xb801823b
0,      86400,      86400,     1152,     2304, 0x0fd573ee
0,      87552,      87552,     1152,     2304, 0xe1ab879c
0,      88704,      88704,     1152,     2304, 0x49e6764f
0,      89856,      89856,     1152,     2304, 0xd5f26ddc
0,      91008,      91008,     1152,     2304, 0x076775ff
0,      92160,      92160,     1152,     2304, 0xfbb86fce
0,      93312,      93312,     1152,     2304, 0x20c56858
0,      94464,      94464,     1152,     2304, 0x043e6891
0,      95616,      95616,     1152,     2304, 0x59648729
0,      96768,      96768,     1152,     2304, 0xd4907a63
0,      97920,      97920,     1152,     2304, 0xd0208a4c
0,      99072,      99072,     1152,     2304, 0xce968383
0,     100224,     100224,     1152,     2304, 0x3cfc7cd1
0,     101376,     101376,     1152,     2304, 0x628a7bf5
0,     102528,     102528,     1152,     2304, 0x9cfe8a4f
0,     103680,     103680,     1152,     2304, 0xdf6f7c6d
0,     104832,     104832,     1152,     2304, 0x6cf6882a
0,     105984,     105984,     1152,     2304, 0x099773a3
0,     107136,     107136,     1152,     2304, 0x4a1c7649
0,     108288,     108288,     1152,     2304, 0x31ea71cb
0,     109440,     109440,     1152,     2304, 0xed127ed9
0,     110592,     110592,     1152,     2304, 0x5b156954
0,     111744,     111744,     1152,     2304, 0xdd638532
0,     112896,     112896,     1152,     2304, 0xf1a271f2
0,     114048,     114048,     1152,     2304, 0x779184d7
0,     115200,     115200,     1152,     2304, 0x49a88aa8
0,     116352,     116352,     1152,     2304, 0xa11b7c90
0,     117504,     117504,     1152,     2304, 0xbf488274
0,     118656,     118656,     1152,     2304, 0x002f79a8
0,     119808,     119808,     1152,     2304, 0x0ed97e2f
0,     120960,     120960,     1152,     2304, 0x7845878f
0,     122112,     122112,     1152,     2304, 0x46d777dc
0,     123264,     123264,     1152,     2304, 0x8d0179e3
0,     124416,     124416,     1152,     2304, 0x38917f9f
0,     125568,     125568,     1152,     2304, 0x449876e7
0,     126720,     126720,     1152,     2304, 0x001a8769
0,     127872,     127872,     1152,     2304, 0x06c1826b
0,     129024,     129024,     1152,     2304, 0x41b68047
0,     130176,     130176,     1152,     2304, 0xeb9782c6
0,     131328,     131328,     1152,     2304, 0x7cd9719c
0,     132480,     132480,     1152,     2304, 0x3a4a767c
0,     133632,     133632,     1152,     2304, 0x7f887e81
0,     134784,     134784,     1152,     2304, 0xf75d714b
0,     135936,     135936,     1152,     2304, 0x33b57e9f
0,     137088,     137088,     1152,     2304, 0xc732749e
0,     138240,     138240,     1152,     2304, 0x386f7e1a
0,     139392,     139392,     1152,     2304, 0x6b9c767d
0,     140544,     140544,     1152,     2304, 0x701c83e5
0,     141696,     141696,     1152,     2304, 0xb92571e1
0,     142848,     142848,     1152,     2304, 0x833a84bc
0,     144000,     144000,     1152,     2304, 0x1b6984e0
0,     145152,     145152,     1152,     2304, 0x1b2474ba
0,     146304,     146304,     1152,     2304, 0xc22775a6
0,     147456,     147456,     1152,     2304, 0x3e8f7972
0,     148608,     148608,     1152,     2304, 0x17a28a65
0,     149760,     149760,     1152,     2304, 0x9b6178a4
0,     150912,     150912,     1152,     2304, 0x5d707873
0,     152064,     152064,     1152,     2304, 0x68e2645a
0,     153216,     153216,     1152,     2304, 0x1e377d28
0,     154368,     154368,     1152,     2304, 0x54b384be
0,     155520,     155520,     1152,     2304, 0x0617808c
0,     156672,     156672,     1152,     2304, 0xbc2b8a6c
0,     157824,     157824,     1152,     2304, 0x7ced7180
0,     158976,     158976,     1152,     2304, 0xf22180ab
0,     160128,     160128,     1152,     2304, 0xf13682c9
0,     161280,     161280,     1152,     2304, 0x7eff87fd
0,     162432,     162432,     1152,     2304, 0x5a0b5cec
0,     163584,     163584,     1152,     2304, 0x57c18906
0,     164736,     164736,     1152,     2304, 0xb55a6a16
0,     165888,     165888,     1152,     2304, 0xf2608371
0,     167040,     167040,     1152,     2304, 0x36df7576
0,     168192,     168192,     1152,     2304, 0xdb106fb4
0,     169344,     169344,     1152,     2304, 0x7e4f85d0
0,     170496,     170496,     1152,     2304, 0xe3ee78ab
0,     171648,     171648,     1152,     2304, 0xd36b7dc7
0,     172800,     172800,     1152,     2304, 0xadab7c5c
0,     173952,     173952,     1152,     2304, 0x70786f26
0,     175104,     175104,     1152,     2304, 0xcd5d717e
0,     176256,     176256,     1152,     2304, 0xc1a96f9a
0,     177408,     177408,     1152,     2304, 0xad777887
0,     178560,     178560,     1152,     2304, 0x98277c16
0,     179712,     179712,     1152,     2304, 0x868882c5
0,     180864,     180864,     1152,     2304, 0xc48092b9
0,     182016,     182016,     1152,     2304, 0x230069da
0,     183168,     183168,     1152,     2304, 0x14147ad6
0,     184320,     184320,     1152,     2304, 0xc9007172
0,     185472,     185472,     1152,     2304, 0x85d67bcc
0,     186624,     186624,     1152,     2304, 0x22418bab
0,     187776,     187776,     1152,     2304, 0xe53c8b71
0,     188928,     188928,     1152,     2304, 0x5a1a9053
0,     190080,     190080,     1152,     2304, 0x9cd179af
0,     191232,     191232,     1152,     2304, 0xbb3c7d72
0,     192384,     192384,     1152,     2304, 0x477a8677
0,     193536,     193536,     1152,     2304, 0xe3337834
0,     194688,     194688,     1152,     2304, 0x1cb56d77
0,     195840,     195840,     1152,     2304, 0xe89d6dac
0,     196992,     196992,     1152,     2304, 0xd468827e
0,     198144,     198144,     1152,     2304, 0xebc46b87
0,     199296,     199296,     1152,     2304, 0x5fbb78d2
0,     200448,     200448,     1152,     2304, 0xa1b483d6
0,     201600,     201600,     1152,     2304, 0x6fec7cab
0,     202752,     202752,     1152,     2304, 0xd86d6f6c
0,     203904,     203904,     1152,     2304, 0x8c2c7d51
0,     205056,     205056,     1152,     2304, 0xe8377cd7
0,     206208,     206208,     1152,     2304, 0xb57071b4
0,     207360,     207360,     1152,     2304, 0xc35c71fd
0,     208512,     208512,     1152,     2304, 0x789079e9
0,     209664,     209664,     1152,     2304, 0x413b710e
0,     210816,     210816,     1152,     2304, 0x82678332
0,     211968,     211968,     1152,     2304, 0xe1576e75
0,     213120,     213120,     1152,     2304, 0x7c0b7ad6
0,     214272,     214272,     1152,     2304, 0xc6b6786d
0,     215424,     215424,     1152,     2304, 0x736f7b89
0,     216576,     216576,     1152,     2304, 0x0ded72f1
0,     217728,     217728,     1152,     2304, 0xcb877a3c
0,     218880,     218880,     1152,     2304, 0x7c497d40
0,     220032,     220032,     1152,     2304, 0xaefc798c
0,     221184,     221184,     1152,     2304, 0x4cce748c
0,     222336,     222336,     1152,     2304, 0xaa187fbe
0,     223488,     223488,     1152,     2304, 0x1aa77db9
0,     224640,     224640,     1152,     2304, 0x9e0074b8
0,     225792,     225792,     1152,     2304, 0x74ee822b
0,     226944,     226944,     1152,     2304, 0x975c6ff6
0,     228096,     228096,     1152,     2304, 0xe1847bb4
0,     229248,     229248,     1152,     2304, 0xe0828777
0,     230400,     230400,     1152,     2304, 0xf4027205
0,     231552,     231552,     1152,     2304, 0x535e7a20
0,     232704,     232704,     1152,     2304, 0x5bd88404
0,     233856,     233856,     1152,     2304, 0xf29478b1
0,     235008,     235008,     1152,     2304, 0x9b7c7d88
0,     236160,     236160,     1152,     2304, 0xaeb07335
0,     237312,     237312,     1152,     2304, 0xbef06e08
0,     238464,     238464,     1152,     2304, 0x795f7b8c
0,     239616,     239616,     1152,     2304, 0x435a674d
0,     240768,     240768,     1152,     2304, 0xd8ee7a09
0,     241920,     241920,     1152,     2304, 0x9059812e
0,     243072,     243072,     1152,     2304, 0x7481744a
0,     244224,     244224,     1152,     2304, 0xdff27475
0,     245376,     245376,     1152,     2304, 0xb17783ab
0,     246528,     246528,     1152,     2304, 0x42e9706b
0,     247680,     247680,     1152,     2304, 0x9f0d86b4
0,     248832,     248832,     1152,     2304, 0x2963955f
0,     249984,     249984,     1152,     2304, 0x059a6957
0,     251136,     251136,     1152,     2304, 0x85948206
0,     252288,     252288,     1152,     2304, 0x185e8400
0,     253440,     253440,     1152,     2304, 0xe98e70df
0,     254592,     254592,     1152,     2304, 0x69057b27
0,     255744,     255744,     1152,     2304, 0x49e26f21
0,     256896,     256896,     1152,     2304, 0xb0867da5
0,     258048,     258048,     1152,     2304, 0x785980ff
0,     259200,     259200,     1152,     2304, 0xf4b774be
0,     260352,     260352,     1152,     2304, 0x63897e8c
0,     261504,     261504,     1152,     2304, 0x248b89af
0,     262656,     262656,     1152,     2304, 0xd3627c4a
0,     263808,     263808,     1152,     2304, 0x5a4d9349
0,     264960,     264960,     1152,     2304, 0xe2ce7c4c
0,     266112,     266112,     1152,     2304, 0x321f6c0b
0,     267264,     267264,     1152,     2304, 0x51ac74e0
0,     268416,     268416,     1152,     2304, 0x8efa91ba
0,     269568,     269568,     1152,     2304, 0x8b4b784c
0,     270720,     270720,     1152,     2304, 0xe9e4879e
0,     271872,     271872,     1152,     2304, 0x8dc28081
0,     273024,     273024,     1152,     2304, 0x44b477b0
0,     274176,     274176,     1152,     2304, 0xf7b67084
0,     275328,     275328,     1152,     2304, 0x4b198c17
0,     276480,     276480,     1152,     2304, 0x9c947194
0,     277632,     277632,     1152,     2304, 0x6eaa7f15
0,     278784,     278784,     1152,     2304, 0x119f7c1d
0,     279936,     279936,     1152,     2304, 0x157b7f43
0,     281088,     281088,     1152,     2304, 0xcd2e7acc
0,     282240,     282240,     1152,     2304, 0x97597247
0,     283392,     283392,     1152,     2304, 0x7ba06acb
0,     284544,     284544,     1152,     2304, 0x233c7995
0,     285696,     285696,     1152,     2304, 0x08e28587
0,     286848,     286848,     1152,     2304, 0x92be84b5
0,     288000,     288000,     1152,     2304, 0xbb857d43
0,     289152,     289152,     1152,     2304, 0x168e7c74
0,     290304,     290304,     1152,     2304, 0xac5465d9
0,     291456,     291456,     1152,     2304, 0x18f58831
0,     292608,     292608,     1152,     2304, 0x19b48196
0,     293760,     293760,     1152,     2304, 0x20297653
0,     294912,     294912,     1152,     2304, 0x93397a82
0,     296064,     296064,     1152,     2304, 0x65ea7deb
0,     297216,     297216,     1152,     2304, 0xd7316e20
0,     298368,     298368,     1152,     2304, 0x94107f2b
0,     299520,     299520,     1152,     2304, 0xec3b7dc6
0,     300672,     300672,     1152,     2304, 0x2d3783aa
0,     301824,     301824,     1152,     2304, 0x07e47340
0,     302976,     302976,     1152,     2304, 0xbc117893
0,     304128,     304128,     1152,     2304, 0x8bd97851
0,     305280,     305280,     1152,     2304, 0xc27376a9
0,     306432,     306432,     1152,     2304, 0x30d88c83
0,     307584,     307584,     1152,     2304, 0x19c2704c
0,     308736,     308736,     1152,     2304, 0x093b7b6e
0,     309888,     309888,     1152,     2304, 0x221a7349
0,     311040,     311040,     1152,     2304, 0xa4fd82cd
0,     312192,     312192,     1152,     2304, 0x762e6bc9
0,     313344,     313344,     1152,     2304, 0x270075d4
0,     314496,     314496,     1152,     2304, 0xa5f27b90
0,     315648,     315648,     1152,     2304, 0xf72e7edc
0,     316800,     316800,     1152,     2304, 0x42178486
0,     317952,     317952,     1152,     2304, 0x5f7978e8
0,     319104,     319104,     1152,     2304, 0x5d7c6703
0,     320256,     320256,     1152,     2304, 0x2c4483d5
0,     321408,     321408,     1152,     2304, 0x31bd951d
0,     322560,     322560,     1152,     2304, 0x99487af0
0,     323712,     323712,     1152,     2304, 0x0bd27ee7
0,     324864,     324864,     1152,     2304, 0xc3e07ac4
0,     326016,     326016,     1152,     2304, 0x98a16ba7
0,     327168,     327168,     1152,     2304, 0xd7a5747b
0,     328320,     328320,     1152,     2304, 0x96fb811c
0,     329472,     329472,     1152,     2304, 0x7cee8109
0,     330624,     330624,     1152,     2304, 0x52b18ba2
0,     331776,     331776,     1152,     2304, 0x33be8861
0,     332928,     332928,     1152,     2304, 0xf41282a0
0,     334080,     334080,     1152,     2304, 0xb4268993
0,     335232,     335232,     1152,     2304, 0x52126a1c
0,     336384,     336384,     1152,     2304, 0x050b6f7a
0,     337536,     337536,     1152,     2304, 0x67a26fc3
0,     338688,     338688,     1152,     2304, 0x966c7cf2
0,     339840,     339840,     1152,     2304, 0x22097750
0,     340992,     340992,     1152,     2304, 0xfbb0796c
0,     342144,     342144,     1152,     2304, 0xbd508964
0,     343296,     343296,     1152,     2304, 0xc24478d8
0,     344448,     344448,     1152,     2304, 0x3913769d
0,     345600,     345600,     1152,     2304, 0x8aab872f
0,     346752,     346752,     1152,     2304, 0x7cb4822f
0,     347904,     347904,     1152,     2304, 0xea318144
0,     349056,     349056,     1152,     2304, 0xaf0f86d2
0,     350208,     350208,     1152,     2304, 0x24f27598
0,     351360,     351360,     1152,     2304, 0xd76f6d40
0,     352512,     352512,     1152,     2304, 0x085071a7
0,     353664,     353664,     1152,     2304, 0x1d11704c
0,     354816,     354816,     1152,     2304, 0x21517cbd
0,     355968,     355968,     1152,     2304, 0xcdca8d32
0,     357120,     357120,     1152,     2304, 0x71c18433
0,     358272,     358272,     1152,     2304, 0xd39d7d81
0,     359424,     359424,     1152,     2304, 0x7a0d7a43
0,     360576,     360576,     1152,     2304, 0x007c8884
0,     361728,     361728,     1152,     2304, 0x403282d0
0,     362880,     362880,     1152,     2304, 0xe3737214
0,     364032,     364032,     1152,     2304, 0xaf906f47
0,     365184,     365184,     1152,     2304, 0x54f57b3b
0,     366336,     366336,     1152,     2304, 0x29be7791
0,     367488,     367488,     1152,     2304, 0xe3c663d5
0,     368640,     368640,     1152,     2304, 0xd7258238
0,     369792,     369792,     1152,     2304, 0x3719820d
0,     370944,     370944,     1152,     2304, 0xbe04814f
0,     372096,     372096,     1152,     2304, 0x556c815e
0,     373248,     373248,     1152,     2304, 0xb2447e10
0,     374400,     374400,     1152,     2304, 0x7c16867c
0,     375552,     375552,     1152,     2304, 0x6a7b78ed
0,     376704,     376704,     1152,     2304, 0x5d307b81
0,     377856,     377856,     1152,     2304, 0xaab680d3
0,     379008,     379008,     1152,     2304, 0xb5d37a23
0,     380160,     380160,     1152,     2304, 0x7f7d6f76
0,     381312,     381312,     1152,     2304, 0x317a8296
0,     382464,     382464,     1152,     2304, 0x8a987b3d
0,     383616,     383616,     1152,     2304, 0x4f317a27
0,     384768,     384768,     1152,     2304, 0xfc65852f
0,     385920,     385920,     1152,     2304, 0x40527719
0,     387072,     387072,     1152,     2304, 0x84988e13
0,     388224,     388224,     1152,     2304, 0x318b6ddc
0,     389376,     389376,     1152,     2304, 0x94cf7939
0,     390528,     390528,     1152,     2304, 0x6f22819d
0,     391680,     391680,     1152,     2304, 0xa7dd80a9
0,     392832,     392832,     1152,     2304, 0x1c7968fa
0,     393984,     393984,     1152,     2304, 0xd9937bae
0,     395136,     395136,     1152,     2304, 0xf7137cf9
0,     396288,     396288,     1152,     2304, 0xeadb84b5
0,     397440,     397440,     1152,     2304, 0x9a2390ac
0,     398592,     398592,     1152,     2304, 0xdb6a73f6
0,     399744,     399744,     1152,     2304, 0x69e07507
0,     400896,     400896,     1152,     2304, 0xbc8478b2
0,     402048,     402048,     1152,     2304, 0x32cf8638
0,     403200,     403200,     1152,     2304, 0x2b8d755a
0,     404352,     404352,     1152,     2304, 0x52e05bd2
0,     405504,     405504,     1152,     2304, 0x2aed8c49
0,     406656,     406656,     1152,     2304, 0x587a896e
0,     407808,     407808,     1152,     2304, 0x6dd87dee
0,     408960,     408960,     1152,     2304, 0xd2858338
0,     410112,     410112,     1152,     2304, 0xd90f7842
0,     411264,     411264,     1152,     2304, 0xd6fb6d4a
0,     412416,     412416,     1152,     2304, 0x85498aea
0,     413568,     413568,     1152,     2304, 0x18597790
0,     414720,     414720,     1152,     2304, 0x3cd78fea
0,     415872,     415872,     1152,     2304, 0x94377fbc
0,     417024,     417024,     1152,     2304, 0xf9db73f5
0,     418176,     418176,     1152,     2304, 0x14fb6fca
0,     419328,     419328,     1152,     2304, 0xe9d17d69
0,     420480,     420480,     1152,     2304, 0xdeb57286
0,     421632,     421632,     1152,     2304, 0xa5d37e17
0,     422784,     422784,     1152,     2304, 0xcf6882fb
0,     423936,     423936,     1152,     2304, 0x31758066
0,     425088,     425088,     1152,     2304, 0x6b4d8175
0,     426240,     426240,     1152,     2304, 0x2a3d7f8e
0,     427392,     427392,     1152,     2304, 0xc066743b
0,     428544,     428544,     1152,     2304, 0xcab88146
0,     429696,     429696,     1152,     2304, 0x2b4c6e13
0,     430848,     430848,     1152,     2304, 0x00b36b6f
0,     432000,     432000,     1152,     2304, 0x664a88d3
0,     433152,     433152,     1152,     2304, 0x18a66f76
0,     434304,     434304,     1152,     2304, 0x4f828a8b
0,     435456,     435456,     1152,     2304, 0x9cc7728e
0,     436608,     436608,     1152,     2304, 0xbe357936
0,     437760,     437760,     1152,     2304, 0x19878f8d
0,     438912,     438912,     1152,     2304, 0x227b7c71
0,     440064,     440064,     1152,     2304, 0xf7c879ec
0,     441216,     441216,     1152,     2304, 0x0bca7b50
0,     442368,     442368,     1152,     2304, 0xe4398304
0,     443520,     443520,     1152,     2304, 0xf5da75c7
0,     444672,     444672,     1152,     2304, 0x9f9070a3
0,     445824,     445824,     1152,     2304, 0x789076f6
0,     446976,     446976,     1152,     2304, 0x362977cc
0,     448128,     448128,     1152,     2304, 0x4d0a8928
0,     449280,     449280,     1152,     2304, 0x1bb767ec
0,     450432,     450432,     1152,     2304, 0xbe727fa5
0,     451584,     451584,     1152,     2304, 0x27f38347
0,     452736,     452736,     1152,     2304, 0x0a3c8783
0,     453888,     453888,     1152,     2304, 0x8249639c
0,     455040,     455040,     1152,     2304, 0x3b076f69
0,     456192,     456192,     1152,     2304, 0xd9597ee3
0,     457344,     457344,     1152,     2304, 0x026e7fad
0,     458496,     458496,     1152,     2304, 0xbd7a6de4
0,     459648,     459648,     1152,     2304, 0x7d718a4d
0,     460800,     460800,     1152,     2304, 0x1f5e83b4
0,     461952,     461952,     1152,     2304, 0x597d7755
0,     463104,     463104,     1152,     2304, 0x3fb080bd
0,     464256,     464256,     1152,     2304, 0xdcbd7b16
0,     465408,     465408,     1152,     2304, 0x5c48865f
0,     466560,     466560,     1152,     2304, 0xcda37ae8
0,     467712,     467712,     1152,     2304, 0x4810796d
0,     468864,     468864,     1152,     2304, 0x34317fd0
0,     470016,     470016,     1152,     2304, 0x5c0e7456
0,     471168,     471168,     1152,     2304, 0x44d78040
0,     472320,     472320,     1152,     2304, 0x88587882
0,     473472,     473472,     1152,     2304, 0x77687d5e
0,     474624,     474624,     1152,     2304, 0x116d68bb
0,     475776,     475776,     1152,     2304, 0x3e5b6f60
0,     476928,     476928,     1152,     2304, 0x64ea783c
0,     478080,     478080,     1152,     2304, 0x23547f7d
0,     479232,     479232,     1152,     2304, 0x2eee7892
0,     480384,     480384,     1152,     2304, 0xfb837cba
0,     481536,     481536,     1152,     2304, 0x86518209
0,     482688,     482688,     1152,     2304, 0x672f7bba
0,     483840,     483840,     1152,     2304, 0x6ab583fb
0,     484992,     484992,     1152,     2304, 0xc1297428
0,     486144,     486144,     1152,     2304, 0x164e7717
0,     487296,     487296,     1152,     2304, 0xb754976d
0,     488448,     488448,     1152,     2304, 0xb99d81b2
0,     489600,     489600,     1152,     2304, 0x79046fd6
0,     490752,     490752,     1152,     2304, 0x9a3f8426
0,     491904,     491904,     1152,     2304, 0x896371f5
0,     493056,     493056,     1152,     2304, 0x63d1799f
0,     494208,     494208,     1152,     2304, 0x4842844e
0,     495360,     495360,     1152,     2304, 0x850e8372
0,     496512,     496512,     1152,     2304, 0x85d07022
0,     497664,     497664,     1152,     2304, 0x9e6683d1
0,     498816,     498816,     1152,     2304, 0x301b8981
0,     499968,     499968,     1152,     2304, 0x1f1e98c5
0,     501120,     501120,     1152,     2304, 0xc8797b03
0,     502272,     502272,     1152,     2304, 0xf9d189f5
0,     503424,     503424,     1152,     2304, 0x0e0d88be
0,     504576,     504576,     1152,     2304, 0x6c1d7843
0,     505728,     505728,     1152,     2304, 0xd13b8a38
0,     506880,     506880,     1152,     2304, 0x9b8f773c
0,     508032,     508032,     1152,     2304, 0x9acd7309
0,     509184,     509184,     1152,     2304, 0x5e7d7d15
0,     510336,     510336,     1152,     2304, 0xf09d7640
0,     511488,     511488,     1152,     2304, 0xaebb718f
0,     512640,     512640,     1152,     2304, 0x0c8570f4
0,     513792,     513792,     1152,     2304, 0x3c93862c
0,     514944,     514944,     1152,     2304, 0xcee46696
0,     516096,     516096,     1152,     2304, 0x01ba7e20
0,     517248,     517248,     1152,     2304, 0x7fcb7a09
0,     518400,     518400,     1152,     2304, 0xddf18c14
0,     519552,     519552,     1152,     2304, 0xd2e97eeb
0,     520704,     520704,     1152,     2304, 0x514d8719
0,     521856,     521856,     1152,     2304, 0xe89279c9
0,     523008,     523008,     1152,     2304, 0x806d6a95
0,     524160,     524160,     1152,     2304, 0xbc7a8a60
0,     525312,     525312,     1152,     2304, 0x302f8fa8
0,     526464,     526464,     1152,     2304, 0xb136784c
0,     527616,     527616,     1152,     2304, 0x9b0f6aab
0,     528768,     528768,     1152,     2304, 0xd8e27582
0,     529920,     529920,     1152,     2304, 0xdaaf78b1
0,     531072,     531072,     1152,     2304, 0x65967f5f
0,     532224,     532224,     1152,     2304, 0x6f917aa4
0,     533376,     533376,     1152,     2304, 0x7f607444
0,     534528,     534528,     1152,     2304, 0xfd316f2c
0,     535680,     535680,     1152,     2304, 0x776e83c7
0,     536832,     536832,     1152,     2304, 0xb9c17e16
0,     537984,     537984,     1152,     2304, 0xdf287de8
0,     539136,     539136,     1152,     2304, 0xf33d96a3
0,     540288,     540288,     1152,     2304, 0xad216e5b
0,     541440,     541440,     1152,     2304, 0x4a328342
0,     542592,     542592,     1152,     2304, 0xcf3f8079
0,     543744,     543744,     1152,     2304, 0xb46f77b0
0,     544896,     544896,     1152,     2304, 0x3199713d
0,     546048,     546048,     1152,     2304, 0x5e667a0d
0,     547200,     547200,     1152,     2304, 0xa3047ae3
0,     548352,     548352,     1152,     2304, 0x9edf8594
0,     549504,     549504,     1152,     2304, 0xd16382d5
0,     550656,     550656,     1152,     2304, 0x6e838328
0,     551808,     551808,     1152,     2304, 0xa1f697c1
0,     552960,     552960,     1152,     2304, 0xefcc749c
0,     554112,     554112,     1152,     2304, 0x1f94839e
0,     555264,     555264,     1152,     2304, 0x429e7c5b
0,     556416,     556416,     1152,     2304, 0x9b59711c
0,     557568,     557568,     1152,     2304, 0xdac27323
0,     558720,     558720,     1152,     2304, 0xa4856d2b
0,     559872,     559872,     1152,     2304, 0x07a37498
0,     561024,     561024,     1152,     2304, 0xe1ce7512
0,     562176,     562176,     1152,     2304, 0x15e182c3
0,     563328,     563328,     1152,     2304, 0x0fa46b8c
0,     564480,     564480,     1152,     2304, 0xbdf07bfd
0,     565632,     565632,     1152,     2304, 0xe0238b2a
0,     566784,     566784,     1152,     2304, 0xab537267
0,     567936,     567936,     1152,     2304, 0xd46b75f3
0,     569088,     569088,     1152,     2304, 0xec73794b
0,     570240,     570240,     1152,     2304, 0x680580c1
0,     571392,     571392,     1152,     2304, 0x1ace8f6c
0,     572544,     572544,     1152,     2304, 0x19d583ac
0,     573696,     573696,     1152,     2304, 0x4b6b8105
0,     574848,     574848,     1152,     2304, 0x392a78b2
0,     576000,     576000,     1152,     2304, 0xd3916dad
0,     577152,     577152,     1152,     2304, 0x569c7a75
0,     578304,     578304,     1152,     2304, 0xf5ac814b
0,     579456,     579456,     1152,     2304, 0x18d77e98
0,     580608,     580608,     1152,     2304, 0x007074ce
0,     581760,     581760,     1152,     2304, 0x0fe38373
0,     582912,     582912,     1152,     2304, 0x5a967920
0,     584064,     584064,     1152,     2304, 0x22167501
0,     585216,     585216,     1152,     2304, 0xf0828cab
0,     586368,     586368,     1152,     2304, 0xaeec71b7
0,     587520,     587520,     1152,     2304, 0xc47b62ff
0,     588672,     588672,     1152,     2304, 0xab688478
0,     589824,     589824,     1152,     2304, 0xf35e7bd2
0,     590976,     590976,     1152,     2304, 0x9cff763e
0,     592128,     592128,     1152,     2304, 0x59568dc8
0,     593280,     593280,     1152,     2304, 0x51a278ac
0,     594432,     594432,     1152,     2304, 0xc08a6e68
0,     595584,     595584,     1152,     2304, 0xd3067ef4
0,     596736,     596736,     1152,     2304, 0x54767c49
0,     597888,     597888,     1152,     2304, 0xf8ff8386
0,     599040,     599040,     1152,     2304, 0xef267f63
0,     600192,     600192,     1152,     2304, 0xe2537cd9
0,     601344,     601344,     1152,     2304, 0x77a57680
0,     602496,     602496,     1152,     2304, 0x325c74ad
0,     603648,     603648,     1152,     2304, 0xd7fe87c4
0,     604800,     604800,     1152,     2304, 0x2e756310
0,     605952,     605952,     1152,     2304, 0x6a81796b
0,     607104,     607104,     1152,     2304, 0x2f057daf
0,     608256,     608256,     1152,     2304, 0xcd9f7c9d
0,     609408,     609408,     1152,     2304, 0xc91560a0
0,     610560,     610560,     1152,     2304, 0x962a91eb
0,     611712,     611712,     1152,     2304, 0xa0ff7416
0,     612864,     612864,     1152,     2304, 0xcb5c7dff
0,     614016,     614016,     1152,     2304, 0xd3527041
0,     615168,     615168,     1152,     2304, 0xc89d77c2
0,     616320,     616320,     1152,     2304, 0xe1ce7ccf
0,     617472,     617472,     1152,     2304, 0xe3417c4c
0,     618624,     618624,     1152,     2304, 0x3f1a7166
0,     619776,     619776,     1152,     2304, 0xcdcc7e23
0,     620928,     620928,     1152,     2304, 0x4e727e97
0,     622080,     622080,     1152,     2304, 0x53427ff1
0,     623232,     623232,     1152,     2304, 0x173f6ca9
0,     624384,     624384,     1152,     2304, 0x962887ec
0,     625536,     625536,     1152,     2304, 0xcbec67f4
0,     626688,     626688,     1152,     2304, 0x7a2c943d
0,     627840,     627840,     1152,     2304, 0x8b877570
0,     628992,     628992,     1152,     2304, 0xcf337323
0,     630144,     630144,     1152,     2304, 0x8c8682a4
0,     631296,     631296,     1152,     2304, 0x94c3753c
0,     632448,     632448,     1152,     2304, 0x86898d79
0,     633600,     633600,     1152,     2304, 0xdf667312
0,     634752,     634752,     1152,     2304, 0x062f8ba8
0,     635904,     635904,     1152,     2304, 0xa2c36f08
0,     637056,     637056,     1152,     2304, 0x5bca7358
0,     638208,     638208,     1152,     2304, 0x5648804d
0,     639360,     639360,     1152,     2304, 0xefac87c8
0,     640512,     640512,     1152,     2304, 0x66bf7dcf
0,     641664,     641664,     1152,     2304, 0x62ad73bc
0,     642816,     642816,     1152,     2304, 0x72fe630c
0,     643968,     643968,     1152,     2304, 0xeebe87da
0,     645120,     645120,     1152,     2304, 0x11c870cf
0,     646272,     646272,     1152,     2304, 0x18fb7c27
0,     647424,     647424,     1152,     2304, 0x39047145
0,     648576,     648576,     1152,     2304, 0xdcf07032
0,     649728,     649728,     1152,     2304, 0x61027c50
0,     650880,     650880,     1152,     2304, 0x6e2e89de
0,     652032,     652032,     1152,     2304, 0xc50c6d1d
0,     653184,     653184,     1152,     2304, 0xeed587ee
0,     654336,     654336,     1152,     2304, 0xe38269c7
0,     655488,     655488,     1152,     2304, 0xcf66806e
0,     656640,     656640,     1152,     2304, 0x2d3b7c1b
0,     657792,     657792,     1152,     2304, 0xa4127d48
0,     658944,     658944,     1152,     2304, 0x480b8325
0,     660096,     660096,     1152,     2304, 0xc1527221
0,     661248,     661248,     1152,     2304, 0x94c1769a
0,     662400,     662400,     1152,     2304, 0xcfb37271
0,     663552,     663552,     1152,     2304, 0x946d7a96
0,     664704,     664704,     1152,     2304, 0xdfc18e50
0,     665856,     665856,     1152,     2304, 0x10c48393
0,     667008,     667008,     1152,     2304, 0x58556b10
0,     668160,     668160,     1152,     2304, 0x997b7993
0,     669312,     669312,     1152,     2304, 0x4a787992
0,     670464,     670464,     1152,     2304, 0x11406c20
0,     671616,     671616,     1152,     2304, 0x04a4874a
0,     672768,     672768,     1152,     2304, 0xf3077164
0,     673920,     673920,     1152,     2304, 0x08ac80e3
0,     675072,     675072,     1152,     2304, 0x268370d0
0,     676224,     676224,     1152,     2304, 0x1d137778
0,     677376,     677376,     1152,     2304, 0xfa148e97
0,     678528,     678528,     1152,     2304, 0xec50717c
0,     679680,     679680,     1152,     2304, 0xcbf46b75
0,     680832,     680832,     1152,     2304, 0xd4168038
0,     681984,     681984,     1152,     2304, 0xdd9577f0
0,     683136,     683136,     1152,     2304, 0xc7077685
0,     684288,     684288,     1152,     2304, 0x34d25e91
0,     685440,     685440,     1152,     2304, 0x96537e6d
0,     686592,     686592,     1152,     2304, 0xb12e7940
0,     687744,     687744,     1152,     2304, 0x861d64c0
0,     688896,     688896,     1152,     2304, 0xa2bc64ed
0,     690048,     690048,     1152,     2304, 0x0c5f8261
0,     691200,     691200,     1152,     2304, 0x540584ff
0,     692352,     692352,     1152,     2304, 0xe8328b09
0,     693504,     693504,     1152,     2304, 0x1e777079
0,     694656,     694656,     1152,     2304, 0x453483b4
0,     695808,     695808,     1152,     2304, 0x1cab7a1e
0,     696960,     696960,     1152,     2304, 0xcb37856d
0,     698112,     698112,     1152,     2304, 0x5a4883ed
0,     699264,     699264,     1152,     2304, 0xd1f27cbf
0,     700416,     700416,     1152,     2304, 0x0d377a4d
0,     701568,     701568,     1152,     2304, 0x264e76df
0,     702720,     702720,     1152,     2304, 0x2a68771e
0,     703872,     703872,     1152,     2304, 0xcb317a31
0,     705024,     705024,     1152,     2304, 0xfc5d7a27
0,     706176,     706176,     1152,     2304, 0x6e067d96
0,     707328,     707328,     1152,     2304, 0x0c538560
0,     708480,     708480,     1152,     2304, 0xfbad717a
0,     709632,     709632,     1152,     2304, 0xf9fc7608
0,     710784,     710784,     1152,     2304, 0xb1817c8f
0,     711936,     711936,     1152,     2304, 0x57c37f82
0,     713088,     713088,     1152,     2304, 0x8cac8356
0,     714240,     714240,     1152,     2304, 0x97108186
0,     715392,     715392,     1152,     2304, 0x095d81bb
0,     716544,     716544,     1152,     2304, 0x475f6b2b
0,     717696,     717696,     1152,     2304, 0xdf7c8cc5
0,     718848,     718848,     1152,     2304, 0x979c77be
0,     720000,     720000,     1152,     2304, 0x56a7844b
0,     721152,     721152,     1152,     2304, 0x7ee46b21
0,     722304,     722304,     1152,     2304, 0x05b67220
0,     723456,     723456,     1152,     2304, 0x25787252
0,     724608,     724608,     1152,     2304, 0x8ad278ad
0,     725760,     725760,     1152,     2304, 0x67bd722e
0,     726912,     726912,     1152,     2304, 0x204f77be
0,     728064,     728064,     1152,     2304, 0x82d27ae2
0,     729216,     729216,     1152,     2304, 0x23fa82e4
0,     730368,     730368,     1152,     2304, 0xa9cf8159
0,     731520,     731520,     1152,     2304, 0x13f08749
0,     732672,     732672,     1152,     2304, 0xf84f71b5
0,     733824,     733824,     1152,     2304, 0x1cb777c8
0,     734976,     734976,     1152,     2304, 0x11236722
0,     736128,     736128,     1152,     2304, 0x10197cac
0,     737280,     737280,     1152,     2304, 0xbd417e65
0,     738432,     738432,     1152,     2304, 0x9a1c7d05
0,     739584,     739584,     1152,     2304, 0x4c3a85de
0,     740736,     740736,     1152,     2304, 0x03816eb7
0,     741888,     741888,     1152,     2304, 0x80186e6c
0,     743040,     743040,     1152,     2304, 0x5c097928
0,     744192,     744192,     1152,     2304, 0x94aa823d
0,     745344,     745344,     1152,     2304, 0xa1c27f04
0,     746496,     746496,     1152,     2304, 0x6ddb74a9
0,     747648,     747648,     1152,     2304, 0x5ea67901
0,     748800,     748800,     1152,     2304, 0xd710742d
0,     749952,     749952,     1152,     2304, 0xf8c27add
0,     751104,     751104,     1152,     2304, 0xf1717011
0,     752256,     752256,     1152,     2304, 0xb59072d0
0,     753408,     753408,     1152,     2304, 0xc8dc84a7
0,     754560,     754560,     1152,     2304, 0x33116737
0,     755712,     755712,     1152,     2304, 0x86216bdd
0,     756864,     756864,     1152,     2304, 0xa2f87866
0,     758016,     758016,     1152,     2304, 0x5d77771e
0,     759168,     759168,     1152,     2304, 0x5d8c77fd
0,     760320,     760320,     1152,     2304, 0x23cc89cb
0,     761472,     761472,     1152,     2304, 0x334e7407
0,     762624,     762624,     1152,     2304, 0x01c976ff
0,     763776,     763776,     1152,     2304, 0x3a3b7b15
0,     764928,     764928,     1152,     2304, 0xfa427de9
0,     766080,     766080,     1152,     2304, 0xbeaa7c91
0,     767232,     767232,     1152,     2304, 0xd6988b31
0,     768384,     768384,     1152,     2304, 0x4db47f80
0,     769536,     769536,     1152,     2304, 0xea687d9e
0,     770688,     770688,     1152,     2304, 0x1a6281ce
0,     771840,     771840,     1152,     2304, 0xe1958003
0,     772992,     772992,     1152,     2304, 0xb4ae7c5e
0,     774144,     774144,     1152,     2304, 0x28827c8a
0,     775296,     775296,     1152,     2304, 0x1fb88b25
0,     776448,     776448,     1152,     2304, 0x588d71e8
0,     777600,     777600,     1152,     2304, 0x68227c34
0,     778752,     778752,     1152,     2304, 0xee4d73e8
0,     779904,     779904,     1152,     2304, 0x69287c6d
0,     781056,     781056,     1152,     2304, 0xbb04926a
0,     782208,     782208,     1152,     2304, 0x89456cec
0,     783360,     783360,     1152,     2304, 0xabe18992
0,     784512,     784512,     1152,     2304, 0x50cc7f6c
0,     785664,     785664,     1152,     2304, 0x6d7270be
0,     786816,     786816,     1152,     2304, 0x664c6fef
0,     787968,     787968,     1152,     2304, 0x7f7982f3
0,     789120,     789120,     1152,     2304, 0x6ca170e9
0,     790272,     790272,     1152,     2304, 0x36437d5b
0,     791424,     791424,     1152,     2304, 0xfd2380e8
0,     792576,     792576,     1152,     2304, 0x2e3c6e9f
0,     793728,     793728,     1152,     2304, 0xc8427f3f
0,     794880,     794880,     1152,     2304, 0x962a79ad
0,     796032,     796032,     1152,     2304, 0xc9597c8b
0,     797184,     797184,     1152,     2304, 0x899580bb
0,     798336,     798336,     1152,     2304, 0x2d179dff
0,     799488,     799488,     1152,     2304, 0x4ac1707c
0,     800640,     800640,     1152,     2304, 0x32ea7e95
0,     801792,     801792,     1152,     2304, 0x265e9a2d
0,     802944,     802944,     1152,     2304, 0x1c6484d0
0,     804096,     804096,     1152,     2304, 0x39ae6884
0,     805248,     805248,     1152,     2304, 0x82ed7bc5
0,     806400,     806400,     1152,     2304, 0x556b7b3c
0,     807552,     807552,     1152,     2304, 0xb7f778dd
0,     808704,     808704,     1152,     2304, 0x74447d55
0,     809856,     809856,     1152,     2304, 0x0c66861e
0,     811008,     811008,     1152,     2304, 0x15ba7932
0,     812160,     812160,     1152,     2304, 0xb19170fc
0,     813312,     813312,     1152,     2304, 0x19d37551
0,     814464,     814464,     1152,     2304, 0xdc529142
0,     815616,     815616,     1152,     2304, 0xf2637e77
0,     816768,     816768,     1152,     2304, 0xd065944b
0,     817920,     817920,     1152,     2304, 0x22878123
0,     819072,     819072,     1152,     2304, 0xc21a8bf7
0,     820224,     820224,     1152,     2304, 0x2e3582dc
0,     821376,     821376,     1152,     2304, 0xd42f7987
0,     822528,     822528,     1152,     2304, 0x69b88236
0,     823680,     823680,     1152,     2304, 0x7c988f90
0,     824832,     824832,     1152,     2304, 0x2cd66ded
0,     825984,     825984,     1152,     2304, 0x3e65828b
0,     827136,     827136,     1152,     2304, 0x7e9871c9
0,     828288,     828288,     1152,     2304, 0xf1f2806b
0,     829440,     829440,     1152,     2304, 0xf5087c7b
0,     830592,     830592,     1152,     2304, 0x62b98097
0,     831744,     831744,     1152,     2304, 0xec457c43
0,     832896,     832896,     1152,     2304, 0x87af87a6
0,     834048,     834048,     1152,     2304, 0x97cc757d
0,     835200,     835200,     1152,     2304, 0x08ca76bd
0,     836352,     836352,     1152,     2304, 0x14ae7cbd
0,     837504,     837504,     1152,     2304, 0x1f79709a
0,     838656,     838656,     1152,     2304, 0x17948207
0,     839808,     839808,     1152,     2304, 0x16ee7228
0,     840960,     840960,     1152,     2304, 0x76cc82d7
0,     842112,     842112,     1152,     2304, 0x8f327a8e
0,     843264,     843264,     1152,     2304, 0x14ee7756
0,     844416,     844416,     1152,     2304, 0x15996d2f
0,     845568,     845568,     1152,     2304, 0x4c707d5c
0,     846720,     846720,     1152,     2304, 0x268c6fee
0,     847872,     847872,     1152,     2304, 0x6d838c76
0,     849024,     849024,     1152,     2304, 0xafa17e64
0,     850176,     850176,     1152,     2304, 0xb6546e66
0,     851328,     851328,     1152,     2304, 0x945d8b9f
0,     852480,     852480,     1152,     2304, 0x5bfb7446
0,     853632,     853632,     1152,     2304, 0xae6086f9
0,     854784,     854784,     1152,     2304, 0xa01380cd
0,     855936,     855936,     1152,     2304, 0x06f0828f
0,     857088,     857088,     1152,     2304, 0x0ae07176
0,     858240,     858240,     1152,     2304, 0x66f07522
0,     859392,     859392,     1152,     2304, 0x44018106
0,     860544,     860544,     1152,     2304, 0x8cd283da
0,     861696,     861696,     1152,     2304, 0x14257f45
0,     862848,     862848,     1152,     2304, 0x04979537
0,     864000,     864000,     1152,     2304, 0x8b5f797c
0,     865152,     865152,     1152,     2304, 0x12d67493
0,     866304,     866304,     1152,     2304, 0xc8886a25
0,     867456,     867456,     1152,     2304, 0x614b803a
0,     868608,     868608,     1152,     2304, 0x75667d35
0,     869760,     869760,     1152,     2304, 0xe42c7b00
0,     870912,     870912,     1152,     2304, 0x37787927
0,     872064,     872064,     1152,     2304, 0x85db8409
0,     873216,     873216,     1152,     2304, 0x823b822c
0,     874368,     874368,     1152,     2304, 0xa1658479
0,     875520,     875520,     1152,     2304, 0xdbe58ff7
0,     876672,     876672,     1152,     2304, 0x725175e2
0,     877824,     877824,     1152,     2304, 0xb2ae7741
0,     878976,     878976,     1152,     2304, 0x4de169e4
0,     880128,     880128,     1152,     2304, 0x3cb18530
0,     881280,     881280,     1152,     2304, 0x5a0c5e7b
